<!-- Generated by IcoMoon.io -->
<svg version="1.1" xmlns="http://www.w3.org/2000/svg" width="32" height="32" viewBox="0 0 32 32">
<title>arrow-down</title>
<path d="M31.207 7.999c-0.001-0-0.003-0-0.005-0-0.22 0-0.419 0.089-0.564 0.232l-14.636 13.867-14.636-13.867c-0.145-0.146-0.346-0.235-0.568-0.235-0.444 0-0.803 0.36-0.803 0.803 0 0.222 0.090 0.423 0.235 0.568l15.204 14.404c0.145 0.144 0.344 0.233 0.564 0.233s0.42-0.089 0.564-0.233l15.204-14.404c0.146-0.145 0.237-0.346 0.237-0.568 0-0.441-0.356-0.798-0.797-0.8z"></path>
</svg>
